<svg width="32" height="32" viewBox="0 0 32 32" fill="none" xmlns="http://www.w3.org/2000/svg">
<path d="M6 5L26 27" stroke="#333333" stroke-width="2" stroke-linecap="round" stroke-linejoin="round"/>
<path d="M19.3625 19.7C18.445 20.5406 17.2444 21.0047 16 21C14.9909 20.9999 14.0054 20.6944 13.1731 20.1237C12.3407 19.553 11.7006 18.7438 11.3368 17.8025C10.973 16.8612 10.9025 15.8319 11.1347 14.8498C11.3668 13.8677 11.8908 12.9788 12.6375 12.3" stroke="#333333" stroke-width="2" stroke-linecap="round" stroke-linejoin="round"/>
<path d="M9.25 8.57499C4.15 11.15 2 16 2 16C2 16 6 25 16 25C18.3432 25.0191 20.6572 24.4792 22.75 23.425" stroke="#333333" stroke-width="2" stroke-linecap="round" stroke-linejoin="round"/>
<path d="M26.075 21.1375C28.8 18.7 30 16 30 16C30 16 26 7 16 7C15.1331 6.99829 14.2675 7.06937 13.4125 7.2125" stroke="#333333" stroke-width="2" stroke-linecap="round" stroke-linejoin="round"/>
<path d="M16.9375 11.0875C18.0008 11.289 18.9697 11.8308 19.6981 12.6313C20.4264 13.4318 20.8746 14.4474 20.975 15.525" stroke="#333333" stroke-width="2" stroke-linecap="round" stroke-linejoin="round"/>
</svg>
