<svg width="50" height="50" viewBox="0 0 50 50" fill="none" xmlns="http://www.w3.org/2000/svg">
<rect width="50" height="50" rx="25" fill="#FFB800"/>
<path d="M23.6952 16.0496C25.6498 16.0496 27.2343 14.4005 27.2343 12.3664C27.2343 10.3322 25.6498 8.68317 23.6952 8.68317C21.7407 8.68317 20.1562 10.3322 20.1562 12.3664C20.1562 14.4005 21.7407 16.0496 23.6952 16.0496Z" stroke="#222222" stroke-width="2" stroke-linecap="round" stroke-linejoin="round"/>
<path d="M11.8985 27.0991C13.853 27.0991 15.4375 25.4501 15.4375 23.4159C15.4375 21.3817 13.853 19.7327 11.8985 19.7327C9.94388 19.7327 8.35938 21.3817 8.35938 23.4159C8.35938 25.4501 9.94388 27.0991 11.8985 27.0991Z" stroke="#222222" stroke-width="2" stroke-linecap="round" stroke-linejoin="round"/>
<path d="M29.5938 40.6042C31.5483 40.6042 33.1328 38.9551 33.1328 36.921C33.1328 34.8868 31.5483 33.2378 29.5938 33.2378C27.6392 33.2378 26.0547 34.8868 26.0547 36.921C26.0547 38.9551 27.6392 40.6042 29.5938 40.6042Z" stroke="#222222" stroke-width="2" stroke-linecap="round" stroke-linejoin="round"/>
<path d="M36.6719 19.7327C38.6265 19.7327 40.2111 18.0837 40.2111 16.0495C40.2111 14.0154 38.6265 12.3663 36.6719 12.3663C34.7173 12.3663 33.1328 14.0154 33.1328 16.0495C33.1328 18.0837 34.7173 19.7327 36.6719 19.7327Z" stroke="#222222" stroke-width="2" stroke-linecap="round" stroke-linejoin="round"/>
<path d="M33.2509 15.0826L27.1165 13.3331" stroke="#222222" stroke-width="2" stroke-linecap="round" stroke-linejoin="round"/>
<path d="M21.0705 14.8372L14.5231 20.9452" stroke="#222222" stroke-width="2" stroke-linecap="round" stroke-linejoin="round"/>
<path d="M14.7593 25.5951L26.7331 34.7417" stroke="#222222" stroke-width="2" stroke-linecap="round" stroke-linejoin="round"/>
<path d="M30.7734 33.4527L35.4922 19.5179" stroke="#222222" stroke-width="2" stroke-linecap="round" stroke-linejoin="round"/>
</svg>
