<svg width="157" height="32" viewBox="0 0 157 32" fill="none" xmlns="http://www.w3.org/2000/svg">
<path d="M140.413 9C142.005 9 143.296 7.65686 143.296 6C143.296 4.34315 142.005 3 140.413 3C138.821 3 137.53 4.34315 137.53 6C137.53 7.65686 138.821 9 140.413 9Z" stroke="#333333" stroke-width="2" stroke-linecap="round" stroke-linejoin="round"/>
<path d="M130.804 18C132.396 18 133.687 16.6569 133.687 15C133.687 13.3431 132.396 12 130.804 12C129.212 12 127.922 13.3431 127.922 15C127.922 16.6569 129.212 18 130.804 18Z" stroke="#333333" stroke-width="2" stroke-linecap="round" stroke-linejoin="round"/>
<path d="M145.217 29C146.809 29 148.1 27.6569 148.1 26C148.1 24.3431 146.809 23 145.217 23C143.625 23 142.335 24.3431 142.335 26C142.335 27.6569 143.625 29 145.217 29Z" stroke="#333333" stroke-width="2" stroke-linecap="round" stroke-linejoin="round"/>
<path d="M150.983 12C152.575 12 153.865 10.6569 153.865 9C153.865 7.34315 152.575 6 150.983 6C149.391 6 148.1 7.34315 148.1 9C148.1 10.6569 149.391 12 150.983 12Z" stroke="#333333" stroke-width="2" stroke-linecap="round" stroke-linejoin="round"/>
<path d="M148.196 8.21251L143.2 6.78751" stroke="#333333" stroke-width="2" stroke-linecap="round" stroke-linejoin="round"/>
<path d="M138.275 8.01251L132.942 12.9875" stroke="#333333" stroke-width="2" stroke-linecap="round" stroke-linejoin="round"/>
<path d="M133.134 16.775L142.887 24.225" stroke="#333333" stroke-width="2" stroke-linecap="round" stroke-linejoin="round"/>
<path d="M146.178 23.175L150.022 11.825" stroke="#333333" stroke-width="2" stroke-linecap="round" stroke-linejoin="round"/>
<path d="M3.692 24.13C3.36267 24.13 3.08533 24.0173 2.86 23.792C2.63467 23.5667 2.522 23.2893 2.522 22.96V7.048C2.522 6.71867 2.63467 6.44133 2.86 6.216C3.08533 5.97333 3.36267 5.852 3.692 5.852H9.62C11.2667 5.852 12.61 6.12933 13.65 6.684C14.69 7.23867 15.4353 7.94933 15.886 8.816C16.3367 9.68267 16.562 10.6187 16.562 11.624C16.562 12.6293 16.3367 13.5653 15.886 14.432C15.4353 15.2987 14.69 16.0093 13.65 16.564C12.61 17.1187 11.2667 17.396 9.62 17.396H4.888V22.96C4.888 23.2893 4.76667 23.5667 4.524 23.792C4.29867 24.0173 4.02133 24.13 3.692 24.13ZM9.386 15.16C11.154 15.16 12.3933 14.822 13.104 14.146C13.832 13.47 14.196 12.6293 14.196 11.624C14.196 10.6187 13.832 9.778 13.104 9.102C12.3933 8.426 11.154 8.088 9.386 8.088H4.888V15.16H9.386ZM25.0173 24.26C23.6826 24.26 22.5126 23.974 21.5073 23.402C20.5019 22.83 19.7219 22.024 19.1673 20.984C18.6299 19.9267 18.3613 18.722 18.3613 17.37C18.3613 16.018 18.6299 14.822 19.1673 13.782C19.7219 12.7247 20.5019 11.91 21.5073 11.338C22.5126 10.766 23.6826 10.48 25.0173 10.48C26.3346 10.48 27.4959 10.766 28.5013 11.338C29.5066 11.91 30.2866 12.7247 30.8413 13.782C31.3959 14.822 31.6733 16.018 31.6733 17.37C31.6733 18.722 31.3959 19.9267 30.8413 20.984C30.2866 22.024 29.5066 22.83 28.5013 23.402C27.4959 23.974 26.3346 24.26 25.0173 24.26ZM25.0173 22.102C25.7279 22.102 26.4039 21.9373 27.0453 21.608C27.7039 21.2787 28.2413 20.7587 28.6573 20.048C29.0906 19.3373 29.3073 18.436 29.3073 17.344C29.3073 16.2693 29.0906 15.3767 28.6573 14.666C28.2413 13.9553 27.7039 13.444 27.0453 13.132C26.4039 12.8027 25.7279 12.638 25.0173 12.638C24.2893 12.638 23.5959 12.8027 22.9373 13.132C22.2959 13.444 21.7673 13.9553 21.3513 14.666C20.9353 15.3767 20.7273 16.2693 20.7273 17.344C20.7273 18.436 20.9353 19.3373 21.3513 20.048C21.7673 20.7587 22.2959 21.2787 22.9373 21.608C23.5959 21.9373 24.2893 22.102 25.0173 22.102ZM36.1556 24.13C35.8263 24.13 35.549 24.0173 35.3236 23.792C35.0983 23.5667 34.9856 23.2893 34.9856 22.96V6.086C34.9856 5.75667 35.0983 5.47933 35.3236 5.254C35.549 5.01133 35.8263 4.89 36.1556 4.89C36.5023 4.89 36.7883 5.00267 37.0136 5.228C37.239 5.45333 37.3516 5.73933 37.3516 6.086V22.96C37.3516 23.2893 37.2303 23.5667 36.9876 23.792C36.7623 24.0173 36.485 24.13 36.1556 24.13ZM44.4243 30.11C44.1123 30.11 43.8436 29.9973 43.6183 29.772C43.4103 29.5467 43.3063 29.278 43.3063 28.966C43.3063 28.8273 43.3323 28.6887 43.3843 28.55L45.0743 24.208L40.1863 12.3C40.1169 12.1267 40.0823 11.962 40.0823 11.806C40.0823 11.4767 40.1949 11.1993 40.4203 10.974C40.6456 10.7313 40.9229 10.61 41.2523 10.61C41.4949 10.61 41.7116 10.6793 41.9023 10.818C42.1103 10.9567 42.2576 11.13 42.3443 11.338L46.3483 21.27L50.4303 11.39C50.6556 10.87 51.0196 10.61 51.5223 10.61C51.8516 10.61 52.1289 10.7313 52.3543 10.974C52.5796 11.1993 52.6923 11.4767 52.6923 11.806C52.6923 11.962 52.6663 12.1093 52.6143 12.248L45.5163 29.304C45.2736 29.8413 44.9096 30.11 44.4243 30.11ZM56.5951 24.13C56.2658 24.13 55.9884 24.0173 55.7631 23.792C55.5378 23.5667 55.4251 23.2893 55.4251 22.96V11.806C55.4251 11.4767 55.5378 11.1993 55.7631 10.974C55.9884 10.7313 56.2658 10.61 56.5951 10.61C56.9244 10.61 57.2018 10.7313 57.4271 10.974C57.6698 11.1993 57.7911 11.4767 57.7911 11.806V12.924C59.0044 11.2947 60.3651 10.48 61.8731 10.48H62.0031C62.3324 10.48 62.6011 10.5927 62.8091 10.818C63.0344 11.0433 63.1471 11.3207 63.1471 11.65C63.1471 11.9793 63.0344 12.248 62.8091 12.456C62.5838 12.664 62.2978 12.768 61.9511 12.768H61.8211C60.9891 12.768 60.2264 12.976 59.5331 13.392C58.8398 13.7907 58.2591 14.3453 57.7911 15.056V22.96C57.7911 23.2893 57.6698 23.5667 57.4271 23.792C57.2018 24.0173 56.9244 24.13 56.5951 24.13ZM70.9254 24.26C68.8107 24.26 67.1554 23.662 65.9594 22.466C64.7807 21.2527 64.1914 19.554 64.1914 17.37C64.1914 16.1393 64.4167 15.004 64.8674 13.964C65.318 12.924 66.0114 12.0833 66.9474 11.442C67.8834 10.8007 69.036 10.48 70.4054 10.48C71.688 10.48 72.7974 10.7833 73.7334 11.39C74.6694 11.9793 75.38 12.7767 75.8654 13.782C76.3507 14.77 76.5934 15.8533 76.5934 17.032C76.5934 17.3613 76.4807 17.6387 76.2554 17.864C76.0474 18.0893 75.7614 18.202 75.3974 18.202H66.5834C66.722 19.4153 67.1727 20.36 67.9354 21.036C68.698 21.712 69.764 22.05 71.1334 22.05C71.8614 22.05 72.494 21.9807 73.0314 21.842C73.586 21.7033 74.1234 21.504 74.6434 21.244C74.782 21.1747 74.938 21.14 75.1114 21.14C75.3887 21.14 75.6314 21.2353 75.8394 21.426C76.0474 21.6167 76.1514 21.8593 76.1514 22.154C76.1514 22.5353 75.926 22.856 75.4754 23.116C74.7994 23.4973 74.132 23.7833 73.4734 23.974C72.8147 24.1647 71.9654 24.26 70.9254 24.26ZM74.2534 16.278C74.2014 15.4287 73.976 14.718 73.5774 14.146C73.196 13.574 72.7194 13.158 72.1474 12.898C71.5754 12.6207 70.9947 12.482 70.4054 12.482C69.816 12.482 69.2354 12.6207 68.6634 12.898C68.0914 13.158 67.6147 13.574 67.2334 14.146C66.852 14.718 66.6354 15.4287 66.5834 16.278H74.2534ZM83.1039 24.26C82.3413 24.26 81.6306 24.104 80.9719 23.792C80.3306 23.48 79.8193 23.0293 79.4379 22.44C79.0566 21.8333 78.8659 21.14 78.8659 20.36C78.8659 19.0773 79.3686 18.0547 80.3739 17.292C81.3966 16.5293 82.8873 16.148 84.8459 16.148H87.9919V15.94C87.9919 14.796 87.7059 13.9727 87.1339 13.47C86.5793 12.9673 85.7039 12.716 84.5079 12.716C83.8493 12.716 83.2599 12.768 82.7399 12.872C82.2373 12.976 81.6739 13.132 81.0499 13.34C80.9113 13.3747 80.7986 13.392 80.7119 13.392C80.4519 13.392 80.2266 13.2967 80.0359 13.106C79.8453 12.9153 79.7499 12.6813 79.7499 12.404C79.7499 11.936 79.9753 11.6067 80.4259 11.416C81.8993 10.792 83.3986 10.48 84.9239 10.48C86.1199 10.48 87.1253 10.7227 87.9399 11.208C88.7719 11.6933 89.3786 12.326 89.7599 13.106C90.1586 13.8687 90.3579 14.7007 90.3579 15.602V22.96C90.3579 23.2893 90.2366 23.5667 89.9939 23.792C89.7686 24.0173 89.4913 24.13 89.1619 24.13C88.8326 24.13 88.5553 24.0173 88.3299 23.792C88.1046 23.5667 87.9919 23.2893 87.9919 22.96V22.284C86.7093 23.6013 85.0799 24.26 83.1039 24.26ZM83.9879 22.18C84.7506 22.18 85.4873 21.998 86.1979 21.634C86.9086 21.2527 87.5066 20.7847 87.9919 20.23V18.046H85.1579C82.5406 18.046 81.2319 18.7307 81.2319 20.1C81.2319 20.724 81.4399 21.2267 81.8559 21.608C82.2893 21.9893 82.9999 22.18 83.9879 22.18ZM100.46 24.26C99.2115 24.26 98.0589 23.9827 97.0015 23.428C95.9442 22.8733 95.0949 22.076 94.4535 21.036C93.8295 19.996 93.5175 18.774 93.5175 17.37C93.5175 15.966 93.8295 14.744 94.4535 13.704C95.0949 12.664 95.9442 11.8667 97.0015 11.312C98.0589 10.7573 99.2115 10.48 100.46 10.48C101.378 10.48 102.167 10.6013 102.826 10.844C103.502 11.0693 104.126 11.364 104.698 11.728C105.044 11.9533 105.218 12.2567 105.218 12.638C105.218 12.898 105.114 13.1407 104.906 13.366C104.715 13.574 104.49 13.678 104.23 13.678C104.039 13.678 103.848 13.626 103.658 13.522C103.086 13.2273 102.592 13.0193 102.176 12.898C101.777 12.7593 101.274 12.69 100.668 12.69C99.1769 12.69 98.0069 13.1233 97.1575 13.99C96.3082 14.8393 95.8835 15.966 95.8835 17.37C95.8835 18.774 96.3082 19.9093 97.1575 20.776C98.0069 21.6253 99.1769 22.05 100.668 22.05C101.274 22.05 101.777 21.9893 102.176 21.868C102.592 21.7293 103.086 21.5127 103.658 21.218C103.848 21.114 104.039 21.062 104.23 21.062C104.49 21.062 104.715 21.1747 104.906 21.4C105.114 21.608 105.218 21.842 105.218 22.102C105.218 22.4833 105.044 22.7867 104.698 23.012C104.126 23.376 103.502 23.6793 102.826 23.922C102.167 24.1473 101.378 24.26 100.46 24.26ZM109.357 24.13C109.027 24.13 108.75 24.0173 108.525 23.792C108.299 23.5667 108.187 23.2893 108.187 22.96V6.086C108.187 5.75667 108.299 5.47933 108.525 5.254C108.75 5.01133 109.027 4.89 109.357 4.89C109.686 4.89 109.963 5.01133 110.189 5.254C110.431 5.47933 110.553 5.75667 110.553 6.086V12.872C111.211 12.144 111.922 11.5633 112.685 11.13C113.447 10.6967 114.349 10.48 115.389 10.48C116.342 10.48 117.165 10.7053 117.859 11.156C118.569 11.6067 119.107 12.222 119.471 13.002C119.852 13.782 120.043 14.64 120.043 15.576V22.96C120.043 23.2893 119.921 23.5667 119.679 23.792C119.453 24.0173 119.176 24.13 118.847 24.13C118.517 24.13 118.24 24.0173 118.015 23.792C117.789 23.5667 117.677 23.2893 117.677 22.96V15.836C117.677 13.7213 116.723 12.664 114.817 12.664C113.95 12.664 113.17 12.8893 112.477 13.34C111.801 13.7907 111.159 14.3973 110.553 15.16V22.96C110.553 23.2893 110.431 23.5667 110.189 23.792C109.963 24.0173 109.686 24.13 109.357 24.13Z" fill="#333333"/>
</svg>
