<svg width="31" height="32" viewBox="0 0 31 32" fill="none" xmlns="http://www.w3.org/2000/svg">
<path d="M14.413 9C16.005 9 17.2956 7.65686 17.2956 6C17.2956 4.34315 16.005 3 14.413 3C12.821 3 11.5304 4.34315 11.5304 6C11.5304 7.65686 12.821 9 14.413 9Z" stroke="#BBBBBB" stroke-width="2" stroke-linecap="round" stroke-linejoin="round"/>
<path d="M4.80434 18C6.39637 18 7.68697 16.6569 7.68697 15C7.68697 13.3431 6.39637 12 4.80434 12C3.21232 12 1.92172 13.3431 1.92172 15C1.92172 16.6569 3.21232 18 4.80434 18Z" stroke="#BBBBBB" stroke-width="2" stroke-linecap="round" stroke-linejoin="round"/>
<path d="M19.2174 29C20.8094 29 22.1 27.6569 22.1 26C22.1 24.3431 20.8094 23 19.2174 23C17.6254 23 16.3348 24.3431 16.3348 26C16.3348 27.6569 17.6254 29 19.2174 29Z" stroke="#BBBBBB" stroke-width="2" stroke-linecap="round" stroke-linejoin="round"/>
<path d="M24.9826 12C26.5747 12 27.8653 10.6569 27.8653 9C27.8653 7.34315 26.5747 6 24.9826 6C23.3906 6 22.1 7.34315 22.1 9C22.1 10.6569 23.3906 12 24.9826 12Z" stroke="#BBBBBB" stroke-width="2" stroke-linecap="round" stroke-linejoin="round"/>
<path d="M22.1961 8.21251L17.1995 6.78751" stroke="#BBBBBB" stroke-width="2" stroke-linecap="round" stroke-linejoin="round"/>
<path d="M12.2751 8.01251L6.94223 12.9875" stroke="#BBBBBB" stroke-width="2" stroke-linecap="round" stroke-linejoin="round"/>
<path d="M7.13445 16.775L16.8872 24.225" stroke="#BBBBBB" stroke-width="2" stroke-linecap="round" stroke-linejoin="round"/>
<path d="M20.1782 23.175L24.0217 11.825" stroke="#BBBBBB" stroke-width="2" stroke-linecap="round" stroke-linejoin="round"/>
</svg>
